<svg xmlns="http://www.w3.org/2000/svg" viewBox="0 0 1200 420" width="1200" height="420" role="img" aria-label="DPDP India - a GattyWorks project - audit your app for India's data-protection law">
  <defs><linearGradient id="bg" x1="0" y1="0" x2="1" y2="1"><stop offset="0" stop-color="#f0fdfa"/><stop offset="0.5" stop-color="#e3f7f4"/><stop offset="1" stop-color="#f0fdfa"/></linearGradient>
  <radialGradient id="glow" cx="0.78" cy="0.22" r="0.6">
    <stop offset="0" stop-color="#2dd4bf" stop-opacity="0.18"/>
    <stop offset="1" stop-color="#2dd4bf" stop-opacity="0"/>
  </radialGradient>
  <filter id="cardShadow" x="-20%" y="-20%" width="140%" height="140%">
    <feDropShadow dx="0" dy="10" stdDeviation="20" flood-color="#000000" flood-opacity="0.28"/>
  </filter></defs>
  <style>text{font-family:'Segoe UI', 'Helvetica Neue', Arial, sans-serif;} .mono{font-family:ui-monospace,'Cascadia Code',monospace;}</style>
  <rect width="1200" height="420" fill="url(#bg)"/>
  <rect width="1200" height="420" fill="url(#glow)"/>
  <g fill="rgba(15,118,110,0.06)">
    <rect x="-30" y="338" width="230" height="60" rx="30" transform="rotate(-32 85 368)"/>
    <rect x="120" y="-44" width="170" height="50" rx="25" transform="rotate(-32 205 -19)"/>
  </g>
  <g transform="translate(-27.7 -153.4) scale(1.4)" fill="#0f766e" opacity="0.06"><g transform="translate(71.92 334.50) scale(0.21927 -0.21927)"><path d="M423 -16Q346 -16 277.5 12Q209 40 156.5 90Q104 140 74.5 208.5Q45 277 45 358Q45 439 74.5 507.5Q104 576 156 626Q208 676 276.5 704Q345 732 423 732Q509 732 578 702Q647 672 696 619L603 528Q580 553 553 569.5Q526 586 494 595Q462 604 422 604Q373 604 329.5 586.5Q286 569 252.5 536.5Q219 504 200 459Q181 414 181 358Q181 302 200 257Q219 212 252.5 179.5Q286 147 330 129.5Q374 112 424 112Q474 112 513 126Q552 140 579.5 164Q607 188 623.5 217.5Q640 247 645 278L420 278L420 393L771 393Q774 383 776 363Q778 343 778 330L778 330L778 330L778 330Q778 251 751.5 187Q725 123 677.5 77.5Q630 32 565 8Q500 -16 423 -16Z"/></g><g transform="translate(224.97 334.50) scale(0.21927 -0.21927)"><path d="M206 0L16 716L166 716L264 314L276 239L284 239L300 314L426 716L559 716L682 314L698 241L706 241L718 314L815 716L965 716L780 0L635 0L513 432L497 509L489 509L473 432L345 0Z"/></g></g>

  <g transform="translate(90 40)">
    <path d="M 6.054400000000001 0 L 25.9456 0 Q 29.439999999999998 0 29.439999999999998 3.4944 L 29.439999999999998 16 C 29.439999999999998 26.56 16 32 16 32 C 16 32 2.5600000000000005 26.56 2.5600000000000005 16 L 2.5600000000000005 3.4944 Q 2.5600000000000005 0 6.054400000000001 0 Z" fill="rgba(15,118,110,0.10)" stroke="#0f766e" stroke-width="1.6" stroke-linejoin="round"/><circle cx="16" cy="15.04" r="9.28" fill="none" stroke="#0f766e" stroke-width="0.79"/><circle cx="16" cy="15.04" r="1.21" fill="#0f766e"/><line x1="17.21" y1="15.04" x2="24.35" y2="15.04" stroke="#0f766e" stroke-width="0.26" stroke-linecap="round"/><line x1="17.17" y1="15.35" x2="24.07" y2="17.20" stroke="#0f766e" stroke-width="0.26" stroke-linecap="round"/><line x1="17.04" y1="15.64" x2="23.23" y2="19.22" stroke="#0f766e" stroke-width="0.26" stroke-linecap="round"/><line x1="16.85" y1="15.89" x2="21.91" y2="20.95" stroke="#0f766e" stroke-width="0.26" stroke-linecap="round"/><line x1="16.60" y1="16.08" x2="20.18" y2="22.27" stroke="#0f766e" stroke-width="0.26" stroke-linecap="round"/><line x1="16.31" y1="16.21" x2="18.16" y2="23.11" stroke="#0f766e" stroke-width="0.26" stroke-linecap="round"/><line x1="16.00" y1="16.25" x2="16.00" y2="23.39" stroke="#0f766e" stroke-width="0.26" stroke-linecap="round"/><line x1="15.69" y1="16.21" x2="13.84" y2="23.11" stroke="#0f766e" stroke-width="0.26" stroke-linecap="round"/><line x1="15.40" y1="16.08" x2="11.82" y2="22.27" stroke="#0f766e" stroke-width="0.26" stroke-linecap="round"/><line x1="15.15" y1="15.89" x2="10.09" y2="20.95" stroke="#0f766e" stroke-width="0.26" stroke-linecap="round"/><line x1="14.96" y1="15.64" x2="8.77" y2="19.22" stroke="#0f766e" stroke-width="0.26" stroke-linecap="round"/><line x1="14.83" y1="15.35" x2="7.93" y2="17.20" stroke="#0f766e" stroke-width="0.26" stroke-linecap="round"/><line x1="14.79" y1="15.04" x2="7.65" y2="15.04" stroke="#0f766e" stroke-width="0.26" stroke-linecap="round"/><line x1="14.83" y1="14.73" x2="7.93" y2="12.88" stroke="#0f766e" stroke-width="0.26" stroke-linecap="round"/><line x1="14.96" y1="14.44" x2="8.77" y2="10.86" stroke="#0f766e" stroke-width="0.26" stroke-linecap="round"/><line x1="15.15" y1="14.19" x2="10.09" y2="9.13" stroke="#0f766e" stroke-width="0.26" stroke-linecap="round"/><line x1="15.40" y1="14.00" x2="11.82" y2="7.81" stroke="#0f766e" stroke-width="0.26" stroke-linecap="round"/><line x1="15.69" y1="13.87" x2="13.84" y2="6.97" stroke="#0f766e" stroke-width="0.26" stroke-linecap="round"/><line x1="16.00" y1="13.83" x2="16.00" y2="6.69" stroke="#0f766e" stroke-width="0.26" stroke-linecap="round"/><line x1="16.31" y1="13.87" x2="18.16" y2="6.97" stroke="#0f766e" stroke-width="0.26" stroke-linecap="round"/><line x1="16.60" y1="14.00" x2="20.18" y2="7.81" stroke="#0f766e" stroke-width="0.26" stroke-linecap="round"/><line x1="16.85" y1="14.19" x2="21.91" y2="9.13" stroke="#0f766e" stroke-width="0.26" stroke-linecap="round"/><line x1="17.04" y1="14.44" x2="23.23" y2="10.86" stroke="#0f766e" stroke-width="0.26" stroke-linecap="round"/><line x1="17.17" y1="14.73" x2="24.07" y2="12.88" stroke="#0f766e" stroke-width="0.26" stroke-linecap="round"/>
    <text x="48" y="21" fill="#0f766e" font-size="15" font-weight="700" letter-spacing="3">INDIA LAW COMPLIANCE TOOL</text>
  </g>

  <text x="88" y="148" fill="#0f172a" font-size="64" font-weight="800" letter-spacing="-1">DPDPA</text>
  <text x="90" y="210" fill="#0f766e" font-size="64" font-weight="800" letter-spacing="-1">India Skill</text>
  <g><rect x="92" y="224" width="43.333333333333336" height="6" rx="1.5" fill="#FF9933"/><rect x="135.33333333333334" y="224" width="43.333333333333336" height="6" fill="#ffffff"/><rect x="178.66666666666669" y="224" width="43.33333333333333" height="6" rx="1.5" fill="#138808"/></g>

  <text x="92" y="268" fill="#0f172a" font-size="25" font-weight="600">Audit your app for India's Digital Protection Laws.</text>
  <text x="92" y="299" fill="#475569" font-size="16" opacity="1">DPDP Act 2023 + Rules 2025 - checklist, code patterns, templates.</text>

  <g font-size="14" font-weight="600">
    <g transform="translate(92 328)"><rect width="150" height="36" rx="18" fill="rgba(15,118,110,0.08)" stroke="rgba(15,118,110,0.35)"/><text x="75" y="23" fill="#0f766e" text-anchor="middle">Audit checklist</text></g>
    <g transform="translate(254 328)"><rect width="140" height="36" rx="18" fill="rgba(15,118,110,0.08)" stroke="rgba(15,118,110,0.35)"/><text x="70" y="23" fill="#0f766e" text-anchor="middle">Code patterns</text></g>
    <g transform="translate(406 328)"><rect width="156" height="36" rx="18" fill="rgba(15,118,110,0.08)" stroke="rgba(15,118,110,0.35)"/><text x="78" y="23" fill="#0f766e" text-anchor="middle">Policy templates</text></g>
  </g>

  <g transform="translate(742 112)" filter="url(#cardShadow)">
    <rect width="386" height="200" rx="20" fill="#ffffff" stroke="#dbe7e5" stroke-width="1"/>
    <g transform="translate(286 22)"><rect width="78" height="28" rx="14" fill="#fee2e2"/><text x="39" y="19" fill="#b91c1c" font-size="13" font-weight="700" text-anchor="middle">Critical</text></g>
    <text x="26" y="42" fill="#0f766e" font-size="12" font-weight="700" letter-spacing="1.5">DPDP AUDIT - FINDING</text>
    <text x="26" y="78" fill="#0f172a" font-size="22" font-weight="700">Security safeguards</text>
    <line x1="26" y1="104" x2="360" y2="104" stroke="#e2e8f0" stroke-width="1"/>
    <text x="26" y="150" fill="#0f766e" font-size="30" font-weight="800">&#8377;250 crore</text>
    <text x="26" y="182" fill="#475569" font-size="15">Max penalty - Section 8(5)</text>
    <text x="360" y="182" fill="#94a3b8" font-size="13" text-anchor="end" class="mono">#C1</text>
  </g>

  <text x="1160" y="395" text-anchor="end" fill="#0f766e" font-size="16">Project by GattyWorks.com</text>
</svg>