<svg xmlns="http://www.w3.org/2000/svg" viewBox="0 0 1280 640" width="1280" height="640">
  <defs>
    <linearGradient id="bg" x1="0" y1="0" x2="1" y2="1"><stop offset="0" stop-color="#0f766e"/><stop offset="0.55" stop-color="#0d524c"/><stop offset="1" stop-color="#082f2c"/></linearGradient>
    
  <radialGradient id="glow" cx="0.78" cy="0.22" r="0.6">
    <stop offset="0" stop-color="#2dd4bf" stop-opacity="0.32"/>
    <stop offset="1" stop-color="#2dd4bf" stop-opacity="0"/>
  </radialGradient>
  <filter id="cardShadow" x="-20%" y="-20%" width="140%" height="140%">
    <feDropShadow dx="0" dy="10" stdDeviation="20" flood-color="#000000" flood-opacity="0.28"/>
  </filter>
  </defs>
  <style>text{font-family:'Segoe UI', 'Helvetica Neue', Arial, sans-serif;} .mono{font-family:ui-monospace,'Cascadia Code',monospace;}</style>
  <rect width="1280" height="640" fill="url(#bg)"/>
  <rect width="1280" height="640" fill="url(#glow)"/>
  <g fill="rgba(255,255,255,0.06)">
    <rect x="-40" y="520" width="300" height="74" rx="37" transform="rotate(-30 110 557)"/>
    <rect x="1050" y="-40" width="260" height="64" rx="32" transform="rotate(-30 1180 -8)"/>
  </g>
  <path d="M 593.38 101 L 686.62 101 Q 703 101 703 117.38 L 703 176 C 703 225.5 640 251 640 251 C 640 251 577 225.5 577 176 L 577 117.38 Q 577 101 593.38 101 Z" fill="rgba(45,212,191,0.16)" stroke="#5eead4" stroke-width="7.5" stroke-linejoin="round"/><circle cx="640" cy="171.5" r="43.5" fill="none" stroke="#5eead4" stroke-width="3.70"/><circle cx="640" cy="171.5" r="5.66" fill="#5eead4"/><line x1="645.65" y1="171.50" x2="679.15" y2="171.50" stroke="#5eead4" stroke-width="1.22" stroke-linecap="round"/><line x1="645.46" y1="172.96" x2="677.82" y2="181.63" stroke="#5eead4" stroke-width="1.22" stroke-linecap="round"/><line x1="644.90" y1="174.33" x2="673.90" y2="191.07" stroke="#5eead4" stroke-width="1.22" stroke-linecap="round"/><line x1="644.00" y1="175.50" x2="667.68" y2="199.18" stroke="#5eead4" stroke-width="1.22" stroke-linecap="round"/><line x1="642.83" y1="176.40" x2="659.58" y2="205.40" stroke="#5eead4" stroke-width="1.22" stroke-linecap="round"/><line x1="641.46" y1="176.96" x2="650.13" y2="209.32" stroke="#5eead4" stroke-width="1.22" stroke-linecap="round"/><line x1="640.00" y1="177.16" x2="640.00" y2="210.65" stroke="#5eead4" stroke-width="1.22" stroke-linecap="round"/><line x1="638.54" y1="176.96" x2="629.87" y2="209.32" stroke="#5eead4" stroke-width="1.22" stroke-linecap="round"/><line x1="637.17" y1="176.40" x2="620.42" y2="205.40" stroke="#5eead4" stroke-width="1.22" stroke-linecap="round"/><line x1="636.00" y1="175.50" x2="612.32" y2="199.18" stroke="#5eead4" stroke-width="1.22" stroke-linecap="round"/><line x1="635.10" y1="174.33" x2="606.10" y2="191.07" stroke="#5eead4" stroke-width="1.22" stroke-linecap="round"/><line x1="634.54" y1="172.96" x2="602.18" y2="181.63" stroke="#5eead4" stroke-width="1.22" stroke-linecap="round"/><line x1="634.35" y1="171.50" x2="600.85" y2="171.50" stroke="#5eead4" stroke-width="1.22" stroke-linecap="round"/><line x1="634.54" y1="170.04" x2="602.18" y2="161.37" stroke="#5eead4" stroke-width="1.22" stroke-linecap="round"/><line x1="635.10" y1="168.67" x2="606.10" y2="151.93" stroke="#5eead4" stroke-width="1.22" stroke-linecap="round"/><line x1="636.00" y1="167.50" x2="612.32" y2="143.82" stroke="#5eead4" stroke-width="1.22" stroke-linecap="round"/><line x1="637.17" y1="166.60" x2="620.42" y2="137.60" stroke="#5eead4" stroke-width="1.22" stroke-linecap="round"/><line x1="638.54" y1="166.04" x2="629.87" y2="133.68" stroke="#5eead4" stroke-width="1.22" stroke-linecap="round"/><line x1="640.00" y1="165.84" x2="640.00" y2="132.35" stroke="#5eead4" stroke-width="1.22" stroke-linecap="round"/><line x1="641.46" y1="166.04" x2="650.13" y2="133.68" stroke="#5eead4" stroke-width="1.22" stroke-linecap="round"/><line x1="642.83" y1="166.60" x2="659.58" y2="137.60" stroke="#5eead4" stroke-width="1.22" stroke-linecap="round"/><line x1="644.00" y1="167.50" x2="667.68" y2="143.82" stroke="#5eead4" stroke-width="1.22" stroke-linecap="round"/><line x1="644.90" y1="168.67" x2="673.90" y2="151.92" stroke="#5eead4" stroke-width="1.22" stroke-linecap="round"/><line x1="645.46" y1="170.04" x2="677.82" y2="161.37" stroke="#5eead4" stroke-width="1.22" stroke-linecap="round"/>
  <text x="640" y="300" text-anchor="middle" fill="#99f6e4" font-size="19" font-weight="700" letter-spacing="5">A GATTYWORKS PROJECT</text>
  <text x="640" y="404" text-anchor="middle" font-size="88" font-weight="800" letter-spacing="-1"><tspan fill="#ffffff">DPDPA </tspan><tspan fill="#5eead4">India</tspan></text>
  <g><rect x="575" y="426" width="43.333333333333336" height="7" rx="1.5" fill="#FF9933"/><rect x="618.3333333333334" y="426" width="43.333333333333336" height="7" fill="#ffffff"/><rect x="661.6666666666666" y="426" width="43.33333333333333" height="7" rx="1.5" fill="#138808"/></g>
  <text x="640" y="486" text-anchor="middle" fill="#ffffff" font-size="29" font-weight="600">Audit your app for India's data-protection law.</text>
  <text x="640" y="524" text-anchor="middle" fill="#ccfbf1" font-size="21" opacity="0.9">DPDP Act 2023 + Rules 2025 - checklist, code patterns, templates.</text>
  <text x="640" y="596" text-anchor="middle" class="mono" fill="#99f6e4" font-size="18" font-weight="600" opacity="0.9">github.com/gattyworks/india-dpdpa-skill</text>
</svg>